PathFileType	4	(X/Y/Z)	Patient4_TMGait_0pt2_03_left_22.trc.trc
DataRate	CameraRate	NumFrames	NumMarkers	Units	OrigDataRate	OrigDataStartFrame	OrigNumFrames
47.619047619048	47.619047619048	4	33	mm	47.619047619048	89	       141
Frame#	Time	Sacral			L.Shoulder			Chest			R.Shoulder			Neck			R.ASIS			L.ASIS			R.Thigh.Superior			R.Thigh.Lateral			R.Thigh.Inferior			R.Patella			L.Thigh.Superior			L.Thigh.Lateral			L.Thigh.Inferior			L.Patella			L.Shank.Superior			L.Shank.Lateral			L.Shank.Inferior			R.Shank.Superior			R.Shank.Lateral			R.Shank.Inferior			R.Heel			R.Midfoot.Superior			R.Midfoot.Lateral			R.Toe			L.Heel			L.Midfoot.Lateral			L.Midfoot.Superior			L.Toe			L.Elbow			L.Wrist			R.Elbow			R.Wrist			
		X1	Y1	Z1	X2	Y2	Z2	X3	Y3	Z3	X4	Y4	Z4	X5	Y5	Z5	X6	Y6	Z6	X7	Y7	Z7	X8	Y8	Z8	X9	Y9	Z9	X10	Y10	Z10	X11	Y11	Z11	X12	Y12	Z12	X13	Y13	Z13	X14	Y14	Z14	X15	Y15	Z15	X16	Y16	Z16	X17	Y17	Z17	X18	Y18	Z18	X19	Y19	Z19	X20	Y20	Z20	X21	Y21	Z21	X22	Y22	Z22	X23	Y23	Z23	X24	Y24	Z24	X25	Y25	Z25	X26	Y26	Z26	X27	Y27	Z27	X28	Y28	Z28	X29	Y29	Z29	X30	Y30	Z30	X31	Y31	Z31	X32	Y32	Z32	X33	Y33	Z33	

89	47.838000000000	872.085227671086	1017.145677311794	527.348730561411	1091.756626243183	1435.141992497664	370.020642865850	1163.753743385473	1365.594021170025	544.238168383124	1057.127562089408	1443.981913800764	702.360159660074	1040.746838666056	1498.209282176176	521.740502994689	1086.446316313851	942.957900169041	668.219077921529	1099.654378258754	962.655789960585	393.773750307868	1127.246445866522	740.923735247585	625.229386587951	1045.804424591480	630.832083686848	682.813377740713	1119.097746037152	580.609477178103	598.013636961233	1119.020668024492	494.732499281377	601.296991424341	1103.482325356903	734.511658385859	402.876001326264	987.639863774714	632.353472695234	321.394462272488	1068.972944943208	544.096157078456	376.787943753161	1059.564868070845	472.868800040996	375.187291535720	1014.126560542278	411.707594074984	360.997902368325	898.666325565823	328.208660093605	300.257902434219	924.796065702703	198.774238383387	352.597276412900	1091.707456243236	405.800142392125	607.733003380613	1023.656380258631	301.056054735840	671.603554960436	1061.156031088466	207.097384861229	603.806074190050	925.523581274260	43.375005087704	578.574495501460	1097.650838647751	96.630765655442	607.642928580137	1012.033135495208	37.147277597361	649.529064299910	1219.400727753906	46.055127834464	629.776696847898	768.112213226641	63.909573657785	377.382660203518	843.285467223662	49.639846547903	299.962309944789	933.255771773771	100.254207621039	327.937141243439	1053.427369604188	36.461756568172	302.562112438356	1170.947258705746	1103.179511064592	229.999485658730	1400.325187824985	988.459844144643	262.284066058495	934.663954309212	1123.983479022740	826.143187331248	1012.511603685294	874.747249620537	842.285633230496	
90	47.859000000000	872.145723664807	1016.982198507524	534.377355928687	1089.706391888236	1434.640446380478	373.760150531369	1164.279413016405	1365.309533088916	547.049215437137	1060.039079155001	1443.852280908933	706.627778611023	1041.170910966934	1498.117758524782	525.946619132936	1088.284316177086	942.588806737928	672.307171440084	1098.063550507992	962.732087937558	397.843850463291	1127.778016315175	740.331655482236	628.415964170192	1046.137826126028	630.198228815667	685.820454133425	1118.770707936383	580.021888543593	600.540392690442	1118.314989933442	493.815655904440	603.497856273018	1106.808131501094	736.501010869345	405.685070618475	993.196873087508	631.989482733496	324.631872018330	1077.813582529562	544.969611833017	378.738527431829	1069.708798324658	472.086019806226	376.002712808633	1021.639494766171	411.394963667522	362.398042735562	903.306495221785	331.605669228197	302.061719493846	926.524284141996	201.063815888216	352.904537369694	1090.182300806477	405.137169934138	609.445823671504	1021.491050903225	300.505887195874	672.720987362369	1058.184931583935	206.688316532743	604.373791831335	921.456641455581	43.393148029229	578.546885674154	1093.596291457450	96.508978268547	607.675647188869	1007.937070128084	37.165759634714	649.548299161907	1215.322028971835	45.783881815027	629.850612739458	766.232552808409	70.852300749420	377.236827182187	840.811828805075	53.961639690834	299.896895580801	932.281314496830	101.676212343856	327.665954872651	1049.935368842830	35.403967799449	302.522174052867	1159.269827445761	1098.566679276117	235.952865539026	1376.009692366061	960.432992133204	264.631609899640	944.668304294149	1123.020229743152	835.758637424784	1034.206377288472	878.089182445238	850.711926224503	
91	47.880000000000	872.117571147709	1016.557719897618	541.185136657763	1087.364521120235	1433.954471487898	377.334792786041	1164.544394359705	1364.894890486412	549.663790800684	1062.691388699961	1443.537600864004	710.686229735639	1041.344564207191	1497.826552595021	529.999864155869	1090.018171777945	942.055560253106	676.139637767822	1096.360323198098	962.714798126692	401.771206350678	1128.578001843365	739.727955535770	631.266935929351	1047.003524205653	629.399316809729	688.525423704983	1119.026403102867	579.390803090537	602.745444513686	1118.326331114790	492.723938609042	605.428180547976	1110.698949116897	738.778210703145	408.535104112169	999.973003137629	631.628539402501	327.659687143174	1087.951741169686	546.190900644133	380.793739202450	1081.157978534341	471.561771483383	376.814747360638	1030.432774311683	411.281422081321	363.781754737885	909.207490436391	335.546278030446	303.914563858751	929.126544125527	203.995391431713	353.365977954368	1089.179465570848	404.306999407107	610.929840727335	1019.741387490326	299.917152594587	673.705435723691	1055.428822462773	206.179693346579	604.809034142389	917.351201025922	43.453392056631	578.508406226518	1089.524552603759	96.385977760953	607.665486813225	1003.801819422530	37.203734381774	649.540183216720	1211.206887931603	45.457483167131	629.906480885393	765.037405303413	79.147588038696	377.403173042826	838.791374130692	59.466221954962	300.042332493378	931.889101177242	103.779899033148	327.556606572086	1046.544142798622	34.448807753316	302.472370533814	1146.501106921387	1093.923191777291	242.008099773223	1347.928532226663	933.353360137820	266.627262198894	954.967317273769	1121.829980301005	845.013418192227	1056.537366370821	882.032805462048	858.510857594271	
92	47.901000000000	871.976784624727	1015.860290834064	547.735745115962	1084.779312216884	1433.077474248876	380.745432899266	1164.564085215618	1364.314845628624	552.082147888020	1065.093748370428	1443.007668384993	714.531041086675	1041.289017972316	1497.315347896471	533.897696982752	1091.611705929336	941.353228330598	679.710627337590	1094.525086216506	962.565801725013	405.535084604676	1129.654442523260	739.110528422094	633.821958635576	1048.404875485384	628.431020468884	690.941977495796	1119.909386506300	578.717388869862	604.659194901197	1119.121529271377	491.453351438596	607.109264147128	1115.056337449835	741.343276927210	411.491247104868	1007.877135142356	631.366308898060	330.495541972088	1099.236681262139	547.848491026444	383.003832782412	1093.770102178968	471.411298922031	377.683996690562	1040.402260095842	411.460583188947	365.182926878974	916.290941205531	340.116684777348	305.897105396120	932.565826345054	207.694321551680	354.080392195184	1088.747331309900	403.306147240603	612.205046282486	1018.429766674553	299.301509473050	674.582241959917	1052.908083631668	205.581399591302	605.137713635021	913.221925604794	43.566684538955	578.469430741062	1085.458314629760	96.271499596348	607.630469550831	999.644369200661	37.259802841684	649.508100532234	1207.073157159109	45.079717482388	629.947994019178	764.588242882251	88.887001797739	378.056051056436	837.245082997560	66.335140712895	300.532270422674	932.054069293932	106.774007660670	327.713581205626	1043.235388281637	33.766050292324	302.420307707743	1132.633693216827	1089.333785384996	248.143304862803	1316.322111548032	907.902586911306	268.408618045815	965.553943040966	1120.354143233230	853.774561810838	1079.401886885579	886.565087275901	865.575023474644	
